<svg width="46" height="47" viewBox="0 0 46 47" fill="none" xmlns="http://www.w3.org/2000/svg">
<path d="M14.4507 18.3201C19.5413 11.4915 30.8524 1.79659 31.9546 2.00325C21.5871 14.0291 16.981 20.9445 9.96534 32.3723C14.7284 26.0991 33.1591 11.0928 36.8454 15.6426C39.7869 19.2731 32.9515 28.0312 29.5921 31.6927C33.1109 29.3271 40.7039 26.5982 43.734 27.2842C47.3849 28.1109 42.7007 36.5149 40.9786 37.1349C39.6009 37.6308 40.4045 36.3771 40.9786 35.6883C48.9004 20.809 24.6411 44.7123 21.7479 39.8195C19.0595 35.273 33.734 24.6647 30.1635 23.1511C27.121 20.6004 9.98009 48.0877 2.47156 44.7123C-3.53525 42.012 9.36013 25.1488 14.4507 18.3201Z" fill="#6BFFAF"/>
</svg>
