<svg width="410" height="397" viewBox="0 0 410 397" fill="none" xmlns="http://www.w3.org/2000/svg">
<path d="M143.5 160.5C180.45 110.935 262.55 40.5655 270.55 42.0655C195.299 129.354 161.866 179.549 110.943 262.497C145.516 216.963 279.293 108.041 306.05 141.065C327.401 167.417 277.786 230.987 253.403 257.564C278.944 240.393 334.057 220.586 356.05 225.565C382.55 231.565 348.55 292.565 336.05 297.065C326.05 300.665 331.884 291.565 336.05 286.565C393.55 178.565 217.466 352.065 196.466 316.551C176.953 283.551 283.466 206.552 257.55 195.565C235.466 177.052 111.05 376.565 56.5504 352.065C12.9504 332.465 106.55 210.065 143.5 160.5Z" fill="black"/>
</svg>
